<svg width="16" height="16" viewBox="0 0 16 16" fill="none" xmlns="http://www.w3.org/2000/svg">
<path fill-rule="evenodd" clip-rule="evenodd" d="M7.99999 0.536133C8.33999 0.536133 8.61523 0.812323 8.61523 1.15232V10.0523L11.0267 7.64089C11.1421 7.52546 11.2987 7.46061 11.4619 7.46061C11.6251 7.46061 11.7817 7.52546 11.8971 7.64089C12.0126 7.75633 12.0774 7.91289 12.0774 8.07613C12.0774 8.23938 12.0126 8.39594 11.8971 8.51137L8.43523 11.9733C8.37809 12.0305 8.31024 12.0758 8.23556 12.1068C8.16088 12.1377 8.08083 12.1537 7.99999 12.1537C7.91915 12.1537 7.8391 12.1377 7.76442 12.1068C7.68974 12.0758 7.62189 12.0305 7.56475 11.9733L4.10285 8.51137C3.98742 8.39594 3.92257 8.23938 3.92257 8.07613C3.92257 7.91289 3.98742 7.75633 4.10285 7.64089C4.21828 7.52546 4.37484 7.46061 4.53809 7.46061C4.70133 7.46061 4.85789 7.52546 4.97333 7.64089L7.38475 10.0523V1.15232C7.38475 0.812323 7.66094 0.536133 7.99999 0.536133ZM1.07618 10.9238C1.41618 10.9238 1.69142 11.1999 1.69142 11.539V13.2704C1.69129 13.4169 1.72006 13.562 1.77606 13.6973C1.83206 13.8327 1.9142 13.9557 2.01779 14.0593C2.12137 14.1629 2.24436 14.245 2.37973 14.301C2.51509 14.357 2.66017 14.3858 2.80666 14.3857H13.1933C13.3398 14.3858 13.4849 14.357 13.6203 14.301C13.7556 14.245 13.8786 14.1629 13.9822 14.0593C14.0858 13.9557 14.1679 13.8327 14.2239 13.6973C14.2799 13.562 14.3087 13.4169 14.3086 13.2704V11.539C14.3086 11.3757 14.3734 11.2191 14.4889 11.1036C14.6044 10.9881 14.761 10.9233 14.9243 10.9233C15.0876 10.9233 15.2442 10.9881 15.3597 11.1036C15.4751 11.2191 15.54 11.3757 15.54 11.539V13.2704C15.54 13.5786 15.4793 13.8837 15.3614 14.1684C15.2434 14.4532 15.0706 14.7119 14.8527 14.9298C14.6348 15.1477 14.3761 15.3205 14.0914 15.4385C13.8066 15.5564 13.5015 15.6171 13.1933 15.6171H2.80666C2.18428 15.6171 1.5874 15.3698 1.14731 14.9298C0.707229 14.4897 0.459991 13.8928 0.459991 13.2704V11.539C0.459991 11.199 0.736182 10.9238 1.07618 10.9238Z" fill="#CCCCCC"/>
</svg>
