<svg width="195" height="100" viewBox="0 0 195 100" fill="none" xmlns="http://www.w3.org/2000/svg">
<path d="M14.1428 85.0438V1.51678H0V98.4736H57.0527V85.0438H14.1235H14.1428Z" fill="#06D6A0"/>
<path d="M85.4927 16.4782V98.4638H72.1977V40.2935H57.6503V28.3859H72.1977V16.4782H85.4927Z" fill="#FFD166"/>
<path d="M127.673 0.346825C126.42 0.115608 125.014 0 123.453 0C117.46 0 112.528 2.13875 108.713 6.37773C104.878 10.6167 102.971 16.3778 102.971 23.6804V98.479H116.401V35.3183L115.996 34.6247V24.6631C115.996 20.5012 116.902 17.4183 118.713 15.3759C120.505 13.3528 123.029 12.3123 126.266 12.3123C127.191 12.3123 128.019 12.3701 128.752 12.5242C129.484 12.6591 130.216 12.8711 130.967 13.1601V1.25242C130.042 0.886331 128.944 0.597309 127.711 0.366093L127.673 0.346825ZM94.493 28.3818V40.2895H130.929V28.3818H94.493Z" fill="#06D6A0"/>
<path d="M190.253 44.0263C187.536 38.6505 183.817 34.4693 179.097 31.425C174.395 28.3614 169.174 26.8585 163.451 26.8585C157.728 26.8585 152.256 28.477 147.324 31.6947C142.372 34.9318 138.48 39.3442 135.609 44.9319C132.757 50.5196 131.312 56.7239 131.312 63.5641C131.312 70.4042 132.719 76.6086 135.532 82.1963C138.345 87.784 142.218 92.1386 147.15 95.2793C152.083 98.4393 157.555 100 163.567 100C167.998 100 172.16 99.0366 176.033 97.1676C179.906 95.26 183.201 92.7552 185.918 89.6145C188.634 86.4738 190.658 83.0826 191.949 79.4988H178.519C176.939 82.0999 174.935 84.1424 172.488 85.6838C170.041 87.206 167.016 87.9574 163.413 87.9574C159.809 87.9574 156.399 86.9748 153.432 84.9902C150.484 82.9863 148.21 80.1924 146.649 76.5315C145.667 74.2579 144.992 71.6952 144.626 68.8435H193.606C193.683 67.9957 193.837 66.9553 194.01 65.7221C194.184 64.489 194.299 63.2173 194.299 61.907C194.299 55.3559 192.931 49.4021 190.195 44.0456L190.253 44.0263ZM144.665 58.4195C145.031 55.5871 145.724 52.9859 146.765 50.5967C148.383 46.8587 150.696 43.9492 153.682 41.8683C156.688 39.7873 159.886 38.7468 163.316 38.7468C166.746 38.7468 169.964 39.7295 172.738 41.7141C175.513 43.718 177.652 46.5119 179.174 50.0957C180.272 52.6584 180.966 55.4137 181.274 58.4003H144.684L144.665 58.4195Z" fill="#06D6A0"/>
</svg>
