<svg width="18" height="19" viewBox="0 0 18 19" fill="none" xmlns="http://www.w3.org/2000/svg">
<path fill-rule="evenodd" clip-rule="evenodd" d="M10.365 14.9998H2.87554C2.71514 14.9919 2.56391 14.9226 2.45316 14.8063C2.34242 14.69 2.28066 14.5356 2.28066 14.375C2.28066 14.2144 2.34242 14.06 2.45316 13.9437C2.56391 13.8274 2.71514 13.7581 2.87554 13.7502H10.3665C10.4943 13.3855 10.732 13.0693 11.0471 12.8454C11.3621 12.6215 11.7388 12.5008 12.1253 12.5C12.939 12.5 13.6253 13.0235 13.8848 13.7502H15.1253C15.2857 13.7581 15.4369 13.8274 15.5477 13.9437C15.6584 14.06 15.7202 14.2144 15.7202 14.375C15.7202 14.5356 15.6584 14.69 15.5477 14.8063C15.4369 14.9226 15.2857 14.9919 15.1253 14.9998H13.8848C13.7561 15.364 13.5179 15.6797 13.203 15.9035C12.888 16.1272 12.5116 16.2483 12.1253 16.25C11.3115 16.25 10.6245 15.725 10.3658 14.9998M12.75 14.375C12.7498 14.2091 12.6837 14.0501 12.5663 13.9329C12.4489 13.8158 12.2897 13.7501 12.1238 13.7502C11.9579 13.7504 11.7989 13.8165 11.6817 13.934C11.5645 14.0514 11.4988 14.2106 11.499 14.3765C11.4991 14.4586 11.5154 14.54 11.5469 14.6158C11.5785 14.6917 11.6246 14.7606 11.6828 14.8186C11.7409 14.8766 11.8099 14.9226 11.8859 14.9539C11.9618 14.9853 12.0431 15.0013 12.1253 15.0012C12.2074 15.0012 12.2887 14.9849 12.3646 14.9534C12.4404 14.9218 12.5093 14.8757 12.5674 14.8175C12.6254 14.7594 12.6714 14.6904 12.7027 14.6144C12.7341 14.5385 12.7501 14.4571 12.75 14.375ZM4.11529 10.1248H2.87479C2.71439 10.1169 2.56316 10.0476 2.45241 9.93133C2.34167 9.81503 2.27991 9.66059 2.27991 9.5C2.27991 9.33941 2.34167 9.18497 2.45241 9.06867C2.56316 8.95237 2.71439 8.88311 2.87479 8.87525H4.11529C4.24402 8.51097 4.48214 8.19534 4.79709 7.97155C5.11204 7.74776 5.48843 7.62672 5.87479 7.625C6.68854 7.625 7.37554 8.15 7.63504 8.87525H15.1253C15.2857 8.88311 15.4369 8.95237 15.5477 9.06867C15.6584 9.18497 15.7202 9.33941 15.7202 9.5C15.7202 9.66059 15.6584 9.81503 15.5477 9.93133C15.4369 10.0476 15.2857 10.1169 15.1253 10.1248H7.63504C7.50626 10.4892 7.26802 10.8049 6.95293 11.0287C6.63783 11.2525 6.26127 11.3734 5.87479 11.375C5.06104 11.375 4.37479 10.8515 4.11529 10.1248ZM6.50029 9.5C6.50019 9.41781 6.4839 9.33644 6.45236 9.26055C6.42081 9.18465 6.37463 9.11571 6.31644 9.05766C6.25825 8.99961 6.1892 8.95359 6.11323 8.92223C6.03726 8.89087 5.95585 8.87478 5.87366 8.87488C5.79147 8.87497 5.7101 8.89126 5.63421 8.9228C5.55831 8.95435 5.48937 9.00053 5.43132 9.05872C5.37327 9.11691 5.32725 9.18596 5.29589 9.26193C5.26453 9.3379 5.24844 9.41931 5.24854 9.5015C5.24873 9.66749 5.31487 9.82661 5.43238 9.94384C5.5499 10.0611 5.70917 10.1268 5.87516 10.1266C6.04115 10.1264 6.20027 10.0603 6.3175 9.94278C6.43473 9.82526 6.50048 9.66599 6.50029 9.5ZM7.23979 5.24975H2.87479C2.71439 5.24189 2.56316 5.17264 2.45241 5.05633C2.34167 4.94003 2.27991 4.78559 2.27991 4.625C2.27991 4.46441 2.34167 4.30997 2.45241 4.19367C2.56316 4.07737 2.71439 4.00811 2.87479 4.00025H7.23979C7.36809 3.63554 7.60621 3.31953 7.92141 3.09565C8.23661 2.87177 8.61342 2.75102 9.00004 2.75C9.81379 2.75 10.5015 3.2735 10.7603 4.00025H15.1253C15.2857 4.00811 15.4369 4.07737 15.5477 4.19367C15.6584 4.30997 15.7202 4.46441 15.7202 4.625C15.7202 4.78559 15.6584 4.94003 15.5477 5.05633C15.4369 5.17264 15.2857 5.24189 15.1253 5.24975H10.7603C10.6315 5.61415 10.3933 5.92986 10.0782 6.15367C9.76308 6.37747 9.38652 6.49843 9.00004 6.5C8.18629 6.5 7.49854 5.975 7.23979 5.24975ZM9.62479 4.625C9.62439 4.45943 9.55844 4.30075 9.44136 4.18367C9.32428 4.06659 9.16561 4.00065 9.00004 4.00025C8.83446 4.00065 8.67579 4.06659 8.55871 4.18367C8.44163 4.30075 8.37568 4.45943 8.37529 4.625C8.38315 4.7854 8.4524 4.93663 8.5687 5.04737C8.685 5.15811 8.83944 5.21988 9.00004 5.21988C9.16063 5.21988 9.31507 5.15811 9.43137 5.04737C9.54767 4.93663 9.61692 4.7854 9.62479 4.625Z" fill="#62757E"/>
</svg>
