<svg width="16" height="16" viewBox="0 0 16 16" fill="none" xmlns="http://www.w3.org/2000/svg">
<path fill-rule="evenodd" clip-rule="evenodd" d="M5.56253 1.7225C5.68028 1.0175 6.29003 0.5 7.00628 0.5H8.99378C9.71003 0.5 10.3205 1.0175 10.4375 1.7225L10.6018 2.705C10.6145 2.783 10.673 2.8775 10.7938 2.94425C10.8573 2.97925 10.9198 3.0155 10.9813 3.053C11.099 3.12425 11.2108 3.128 11.285 3.0995L12.218 2.75C12.5424 2.62838 12.8994 2.62585 13.2255 2.74287C13.5516 2.85989 13.8255 3.08887 13.9985 3.389L14.9923 5.111C15.1656 5.41098 15.2269 5.76276 15.1651 6.10367C15.1032 6.44458 14.9224 6.75247 14.6548 6.9725L13.8853 7.60625C13.8245 7.6565 13.772 7.75475 13.7743 7.89125C13.7756 7.96374 13.7756 8.03626 13.7743 8.10875C13.772 8.24525 13.8245 8.3435 13.8853 8.39375L14.6555 9.0275C15.2075 9.482 15.35 10.2695 14.993 10.889L13.9985 12.611C13.8255 12.9113 13.5514 13.1404 13.2252 13.2574C12.8989 13.3745 12.5418 13.3718 12.2173 13.25L11.285 12.9005C11.2108 12.8728 11.099 12.8758 10.9813 12.947C10.9198 12.9845 10.8573 13.0207 10.7938 13.0557C10.6738 13.1225 10.6138 13.217 10.6018 13.2958L10.4375 14.2775C10.3807 14.6191 10.2045 14.9295 9.94022 15.1534C9.67597 15.3772 9.34086 15.5001 8.99453 15.5H7.00553C6.29078 15.5 5.68028 14.9825 5.56253 14.2775L5.39903 13.295C5.38553 13.217 5.32703 13.1225 5.20703 13.0557C5.14363 13.0206 5.08087 12.9844 5.01878 12.947C4.90103 12.8758 4.78928 12.872 4.71503 12.9005L3.78278 13.25C3.4583 13.3718 3.10111 13.3745 2.77487 13.2574C2.44864 13.1404 2.17457 12.9113 2.00153 12.611L1.00778 10.889C0.834424 10.589 0.773196 10.2372 0.835005 9.89633C0.896813 9.55542 1.07764 9.24753 1.34528 9.0275L2.11478 8.39375C2.17553 8.3435 2.22803 8.24525 2.22578 8.10875C2.22447 8.03626 2.22447 7.96374 2.22578 7.89125C2.22803 7.75475 2.17553 7.6565 2.11478 7.60625L1.34453 6.9725C1.07689 6.75247 0.896063 6.44458 0.834255 6.10367C0.772446 5.76276 0.833674 5.41098 1.00703 5.111L2.00153 3.389C2.17457 3.0887 2.44864 2.85961 2.77487 2.74257C3.10111 2.62554 3.4583 2.62817 3.78278 2.75L4.71503 3.0995C4.79003 3.12725 4.90103 3.12425 5.01878 3.053C5.08078 3.0155 5.14328 2.97925 5.20628 2.94425C5.32703 2.8775 5.38628 2.783 5.39903 2.70425L5.56253 1.7225ZM7.00628 1.70225C6.94457 1.70239 6.88488 1.72428 6.8377 1.76405C6.79052 1.80383 6.75886 1.85895 6.74828 1.91975L6.58478 2.90225C6.50228 3.39725 6.17753 3.7805 5.78903 3.99575C5.73873 4.02354 5.68897 4.0523 5.63978 4.082C5.25953 4.3115 4.76453 4.4015 4.29353 4.22525L3.36053 3.87575C3.30258 3.85428 3.23892 3.85395 3.18075 3.8748C3.12259 3.89565 3.07364 3.93636 3.04253 3.98975L2.04878 5.7125C2.0179 5.76617 2.00699 5.82902 2.01797 5.88996C2.02895 5.95089 2.06111 6.00598 2.10878 6.0455L2.87903 6.67925C3.26603 6.998 3.43553 7.46975 3.42728 7.9145C3.42618 7.97199 3.42618 8.02951 3.42728 8.087C3.43553 8.53175 3.26603 9.0035 2.87903 9.32225L2.10878 9.956C2.06111 9.99551 2.02895 10.0506 2.01797 10.1115C2.00699 10.1725 2.0179 10.2353 2.04878 10.289L3.04253 12.011C3.07364 12.0644 3.12259 12.1051 3.18075 12.1259C3.23892 12.1468 3.30258 12.1465 3.36053 12.125L4.29353 11.7755C4.76453 11.5992 5.25953 11.6892 5.63978 11.9188C5.68928 11.9488 5.73903 11.9775 5.78903 12.005C6.17753 12.2203 6.50153 12.6027 6.58403 13.0985L6.74828 14.081C6.75886 14.1418 6.79052 14.1969 6.8377 14.2367C6.88488 14.2765 6.94457 14.2984 7.00628 14.2985H8.99378C9.05549 14.2984 9.11518 14.2765 9.16236 14.2367C9.20954 14.1969 9.2412 14.1418 9.25178 14.081L9.41603 13.0985C9.49853 12.6035 9.82328 12.2203 10.211 12.005C10.2613 11.9772 10.3111 11.9485 10.3603 11.9188C10.7413 11.6892 11.2355 11.5992 11.7065 11.7755L12.6395 12.125C12.7595 12.17 12.8938 12.1213 12.9575 12.011L13.9513 10.289C13.9822 10.2353 13.9931 10.1725 13.9821 10.1115C13.9711 10.0506 13.9389 9.99551 13.8913 9.956L13.1218 9.32225C12.734 9.0035 12.5645 8.53175 12.5728 8.087C12.5739 8.02951 12.5739 7.97199 12.5728 7.9145C12.5645 7.46975 12.734 6.998 13.1218 6.67925L13.8913 6.0455C13.9389 6.00598 13.9711 5.95089 13.9821 5.88996C13.9931 5.82902 13.9822 5.76617 13.9513 5.7125L12.9575 3.98975C12.9264 3.93636 12.8775 3.89565 12.8193 3.8748C12.7611 3.85395 12.6975 3.85428 12.6395 3.87575L11.7065 4.22525C11.2355 4.4015 10.7413 4.3115 10.3603 4.082C10.3111 4.0523 10.2613 4.02354 10.211 3.99575C9.82253 3.7805 9.49853 3.398 9.41603 2.90225L9.25178 1.91975C9.24122 1.85908 9.20967 1.80405 9.16265 1.76429C9.11562 1.72453 9.05611 1.70257 8.99453 1.70225H7.00628ZM8.00003 6.30125C7.54949 6.30125 7.11741 6.48023 6.79883 6.7988C6.48025 7.11738 6.30128 7.54946 6.30128 8C6.30128 8.45054 6.48025 8.88262 6.79883 9.2012C7.11741 9.51978 7.54949 9.69875 8.00003 9.69875C8.45057 9.69875 8.88265 9.51978 9.20123 9.2012C9.5198 8.88262 9.69878 8.45054 9.69878 8C9.69878 7.54946 9.5198 7.11738 9.20123 6.7988C8.88265 6.48023 8.45057 6.30125 8.00003 6.30125ZM5.09903 8C5.09284 7.61516 5.1633 7.23294 5.30629 6.87559C5.44928 6.51825 5.66195 6.19293 5.93191 5.9186C6.20187 5.64426 6.52373 5.42639 6.87872 5.27767C7.23372 5.12895 7.61476 5.05236 7.99965 5.05236C8.38454 5.05236 8.76559 5.12895 9.12058 5.27767C9.47558 5.42639 9.79743 5.64426 10.0674 5.9186C10.3374 6.19293 10.55 6.51825 10.693 6.87559C10.836 7.23294 10.9065 7.61516 10.9003 8C10.888 8.76122 10.5771 9.48711 10.0344 10.0211C9.49177 10.5551 8.76097 10.8544 7.99965 10.8544C7.23834 10.8544 6.50754 10.5551 5.96489 10.0211C5.42225 9.48711 5.11127 8.76122 5.09903 8Z" fill="#62757E"/>
</svg>
